<?xml version="1.0" encoding="UTF-8" standalone="no"?>
<svg
   width="800pt"
   height="800pt"
   viewBox="0 0 800 800"
   version="1.1"
   id="svg6"
   xmlns="http://www.w3.org/2000/svg"
   xmlns:svg="http://www.w3.org/2000/svg">
  <defs
     id="defs6" />
  <g
     id="#f2dc2bff"
     style="display:inline">
    <path
       fill="#f2dc2b"
       opacity="1"
       d="M 616.97329,336.90612 C 566.17677,320.03837 543.16156,313.2395 512.6,303.18 531.70831,117.24747 294.09188,109.03083 270.65,281.97 236.03104,277.95336 199.6614,274.45685 166.42409,271.09658 185.07176,23.832648 618.86493,-51.544607 616.97329,336.90612 Z"
       id="path2" />
    <path
       fill="#f2dc2b"
       opacity="1"
       d="m 431.68,335.05 c 2.9,-0.23 5.8,0.06 8.69,0.3 -3.07,0.19 -6.4,0.11 -9.38,0.31 z"
       id="path3" />
  </g>
  <g
     id="#d85327ff"
     style="display:inline">
    <path
       fill="#d85327"
       opacity="1"
       d="m 328.65,229.37 c 56.21969,-79.61066 205.48566,1.73619 103.03,105.68 l -0.69,0.61 c 2.98,-0.2 6.31,-0.12 9.38,-0.31 51.13438,-2.49897 105.74104,-4.0437 161.4,30.02 4.82,4.04 12.89,7.93 11.11,15.6 -18.95091,75.26606 -70.08915,172.9488 -152.35,299.37 -2.77,5.46 -6.58,10.28 -10.63,14.84 10.18,-17.37 12.81,-37.94 12.55,-57.76 -2.47572,-49.9168 -51.96762,-69.74132 -89.76,-92.13 -52.35596,-33.98977 9.98626,-67.93776 46.45,-81.27 108.47331,-45.66102 -25.70842,-91.94861 -73.51,-135.67 -28.41594,-29.5213 -33.94523,-63.05708 -16.98,-98.98 z"
       id="path4" />
  </g>
  <g
     id="#09374dff"
     style="display:inline">
    <path
       fill="#09374d"
       opacity="1"
       d="m 172.95,304.76 c 116.50888,-13.89513 258.0751,120.45003 258.25,121.26 -32.44313,29.72491 -162.83552,41.86867 -126.96,115.81 13.82,22.91 38.64,35.25 57.14,53.77 16.66,14.75 28.01,35.82 30.05,58.07 2.78146,30.4798 -14.25441,54.0687 -24.59,80.27 -1.28,0.02 -2.56,0.05 -3.83,0.09 -86.55896,-127.95737 -180.68839,-265.91796 -198.75,-422.9 0.39,-4.07 4.72,-6.81 8.69,-6.37 z"
       id="path6"
       style="fill:#0e8376;fill-opacity:1" />
  </g>
</svg>
