<?xml version="1.0" encoding="UTF-8" ?>
<!DOCTYPE svg PUBLIC "-//W3C//DTD SVG 1.1//EN" "http://www.w3.org/Graphics/SVG/1.1/DTD/svg11.dtd">
<svg width="1117pt" height="1000pt" viewBox="0 0 1117 1000" version="1.1" xmlns="http://www.w3.org/2000/svg">
<g id="#ffcd00ff">
<path fill="#ffcd00" opacity="1.00" d=" M 592.35 105.29 C 596.04 103.21 601.24 105.66 601.47 110.01 C 601.95 114.70 596.96 116.67 593.68 118.68 C 556.70 140.74 518.30 160.30 480.09 180.12 C 473.60 183.07 467.40 186.60 461.17 190.06 C 481.99 180.38 502.45 169.95 523.25 160.22 C 538.45 152.98 553.82 146.09 569.15 139.13 C 586.04 131.51 602.91 123.73 620.42 117.60 C 624.21 116.26 629.27 115.22 632.27 118.71 C 635.07 121.63 633.64 126.43 630.47 128.45 C 615.03 140.11 598.36 150.00 581.57 159.56 C 545.60 179.89 509.56 200.11 473.80 220.79 C 461.35 223.37 448.72 225.38 436.57 229.17 C 436.76 233.21 439.12 236.65 442.28 239.03 C 428.08 247.98 413.34 256.06 399.03 264.83 C 413.84 258.38 428.36 251.22 442.77 243.92 C 441.56 248.15 441.69 252.66 443.27 256.77 C 456.94 254.36 470.30 250.08 484.20 248.94 C 479.46 251.84 474.60 254.52 469.76 257.25 C 464.80 257.18 459.69 257.06 455.06 259.11 C 455.30 260.98 455.56 262.84 455.95 264.69 C 450.14 267.42 444.51 270.53 439.00 273.82 C 444.83 271.33 450.67 268.81 456.14 265.57 C 456.80 267.90 457.50 270.23 458.08 272.59 C 428.37 287.03 398.05 300.14 368.16 314.16 C 365.15 315.48 362.26 317.27 358.98 317.80 C 355.39 318.23 352.77 313.72 354.78 310.77 C 357.74 306.15 362.18 302.73 366.57 299.55 C 375.98 292.84 385.80 286.73 395.57 280.56 C 403.58 275.58 412.00 271.28 419.94 266.18 C 399.75 275.31 379.97 285.84 358.31 291.21 C 354.88 292.12 350.07 292.43 348.30 288.61 C 346.40 285.19 349.24 281.82 351.80 279.79 C 360.56 272.61 370.44 267.00 380.00 261.00 C 432.70 229.41 485.86 198.58 539.33 168.32 C 544.55 165.31 550.07 162.77 554.99 159.24 C 519.38 174.93 483.22 189.36 448.05 206.05 C 428.41 215.47 408.16 223.54 388.16 232.15 C 384.99 233.37 381.74 235.06 378.25 234.69 C 374.76 234.10 373.14 229.26 375.61 226.68 C 380.24 221.13 386.37 217.09 392.62 213.58 C 405.83 205.83 419.60 199.10 433.26 192.17 C 452.36 180.88 470.02 167.26 489.45 156.49 C 507.27 146.32 525.38 136.61 544.05 128.06 C 560.26 120.71 576.05 112.44 592.35 105.29 Z" />
<path fill="#ffcd00" opacity="1.00" d=" M 657.83 140.94 C 661.33 139.99 665.70 138.45 668.81 141.19 C 671.88 143.61 671.74 148.43 669.10 151.12 C 664.75 155.63 659.07 158.53 653.81 161.82 C 617.80 181.42 580.62 198.79 544.46 218.09 C 527.64 216.26 510.68 216.14 493.86 218.01 C 511.75 208.39 529.92 199.25 548.03 190.04 C 567.93 180.16 587.63 169.86 608.04 161.08 C 624.49 154.01 640.81 146.54 657.83 140.94 Z" />
<path fill="#ffcd00" opacity="1.00" d=" M 652.44 168.61 C 657.78 166.92 663.96 171.36 663.78 177.00 C 664.01 180.94 661.03 184.00 658.04 186.09 C 633.83 202.40 607.97 216.01 582.57 230.31 C 571.60 224.74 559.79 221.18 547.77 218.70 C 557.34 212.69 567.58 207.78 577.64 202.63 C 594.42 194.35 611.19 186.05 628.14 178.11 C 636.17 174.78 644.01 170.80 652.44 168.61 Z" />
<path fill="#ffcd00" opacity="1.00" d=" M 684.00 193.90 C 689.22 192.07 694.41 189.60 700.04 189.50 C 705.21 189.50 709.40 194.94 708.16 199.94 C 707.42 203.44 704.42 205.74 701.65 207.66 C 695.39 211.86 688.73 215.43 682.17 219.14 C 659.23 231.65 636.33 244.28 613.02 256.10 C 606.94 248.44 599.82 241.62 591.81 236.01 C 596.71 232.93 602.12 230.80 607.28 228.21 C 632.41 215.83 657.85 203.99 684.00 193.90 Z" />
<path fill="#ffcd00" opacity="1.00" d=" M 700.37 227.40 C 704.35 225.66 709.31 224.08 713.28 226.70 C 717.59 229.22 719.12 235.32 716.57 239.59 C 714.90 242.41 711.80 243.82 708.95 245.14 C 689.30 254.04 669.84 263.37 650.27 272.45 C 642.86 276.02 635.48 279.68 627.86 282.77 L 627.44 281.86 C 624.87 276.13 622.25 270.42 619.06 265.01 C 645.68 251.47 673.06 239.47 700.37 227.40 Z" />
<path fill="#ffcd00" opacity="1.00" d=" M 703.59 248.54 C 708.09 246.66 712.63 244.00 717.66 244.26 C 723.76 244.55 728.72 250.73 727.63 256.76 C 726.97 262.11 722.09 265.39 717.62 267.54 C 689.94 280.56 662.21 293.48 634.49 306.39 C 632.92 299.20 630.92 292.11 628.64 285.11 C 628.60 284.61 628.52 283.62 628.48 283.12 C 653.36 271.27 678.61 260.18 703.59 248.54 Z" />
<path fill="#ffcd00" opacity="1.00" d=" M 491.15 247.92 C 497.81 246.49 504.64 246.06 511.45 246.13 C 509.17 247.26 507.00 248.58 504.76 249.78 C 499.48 251.28 494.48 253.64 490.03 256.85 C 486.41 258.74 482.68 260.41 478.96 262.08 C 476.66 260.63 474.26 259.32 471.83 258.12 C 478.34 254.87 484.91 251.69 491.15 247.92 Z" />
<path fill="#ffcd00" opacity="1.00" d=" M 513.39 246.00 C 525.40 245.11 537.57 246.07 549.33 248.65 C 537.47 255.22 525.68 261.93 513.74 268.34 C 512.89 262.75 512.68 257.05 511.40 251.54 C 511.15 249.84 509.02 249.89 507.80 249.36 C 509.75 248.38 511.54 247.14 513.39 246.00 Z" />
<path fill="#ffcd00" opacity="1.00" d=" M 559.71 251.78 C 570.49 255.15 580.22 261.52 588.15 269.52 C 571.31 278.11 554.67 287.08 538.01 296.02 C 531.42 299.66 524.64 302.97 518.34 307.12 C 517.59 300.79 516.68 294.49 516.07 288.15 C 526.44 282.61 536.83 277.08 547.00 271.18 C 536.53 275.98 526.07 280.84 515.87 286.19 C 515.39 282.59 514.85 278.99 514.49 275.37 C 522.17 271.95 529.41 267.65 536.95 263.93 C 544.54 259.90 552.35 256.24 559.71 251.78 Z" />
<path fill="#ffcd00" opacity="1.00" d=" M 481.58 264.39 C 483.62 263.17 485.70 262.01 487.71 260.72 C 486.85 263.11 486.11 265.54 485.30 267.94 C 484.05 266.76 482.82 265.57 481.58 264.39 Z" />
<path fill="#ffcd00" opacity="1.00" d=" M 594.46 276.94 C 598.33 282.15 601.28 288.02 603.34 294.16 C 598.93 297.49 593.79 299.59 588.89 302.06 C 566.42 313.33 543.97 324.64 521.81 336.50 C 520.82 329.46 519.88 322.42 519.21 315.35 C 544.24 302.45 569.48 289.93 594.46 276.94 Z" />
<path fill="#ffcd00" opacity="1.00" d=" M 453.53 280.49 C 455.41 279.35 457.36 278.35 459.36 277.43 C 461.27 283.73 462.85 290.12 464.48 296.51 C 446.90 306.81 429.21 316.97 412.00 327.88 C 430.19 319.54 448.00 310.39 465.77 301.19 C 466.65 304.28 467.40 307.41 468.12 310.54 C 427.76 330.80 387.63 351.70 345.78 368.72 C 340.10 370.87 333.67 365.10 335.27 359.21 C 336.99 353.04 342.85 349.37 347.57 345.57 C 361.92 335.34 377.05 326.28 392.07 317.08 C 412.47 304.75 433.04 292.69 453.53 280.49 Z" />
<path fill="#ffcd00" opacity="1.00" d=" M 699.39 285.42 C 704.73 283.33 709.97 280.01 715.91 280.26 C 721.16 280.49 725.28 285.85 724.40 291.00 C 723.92 295.21 720.25 297.93 716.83 299.86 C 697.03 310.85 677.01 321.45 656.94 331.93 C 650.85 334.91 645.00 338.38 638.76 341.05 C 638.50 338.64 638.33 336.23 638.20 333.81 C 637.90 327.31 636.88 320.88 635.99 314.44 C 656.99 304.49 677.91 294.33 699.39 285.42 Z" />
<path fill="#ffcd00" opacity="1.00" d=" M 573.15 310.97 C 583.34 305.83 593.10 299.72 603.81 295.68 C 605.79 303.74 608.44 312.48 605.89 320.69 C 590.68 328.10 575.49 335.61 560.80 344.01 C 552.02 346.52 542.92 347.54 533.93 348.94 C 530.41 349.51 526.87 349.88 523.32 349.89 C 522.56 345.75 522.18 341.55 521.88 337.36 C 539.10 328.81 555.98 319.63 573.15 310.97 Z" />
<path fill="#ffcd00" opacity="1.00" d=" M 717.05 311.11 C 720.59 309.59 724.05 307.42 728.00 307.25 C 733.44 306.96 738.26 312.52 737.12 317.87 C 736.62 320.91 734.49 323.35 732.03 325.06 C 723.16 331.13 713.05 335.06 703.98 340.78 C 710.68 338.85 716.86 334.65 724.02 334.66 C 730.86 334.71 736.35 342.22 733.95 348.73 C 732.19 354.53 725.94 356.62 721.04 359.04 C 703.64 367.60 686.09 375.86 668.95 384.93 C 650.32 394.46 632.06 404.68 613.68 414.68 C 592.79 426.06 571.89 437.40 551.34 449.36 C 546.13 452.28 541.17 455.65 535.78 458.22 C 535.65 457.62 535.40 456.41 535.28 455.80 C 534.53 451.26 534.02 446.67 533.91 442.06 C 539.33 440.49 544.95 439.84 550.43 438.50 C 564.41 435.19 578.26 430.77 590.95 423.94 C 604.47 416.48 616.68 406.20 625.17 393.20 C 633.50 380.42 637.57 365.25 638.32 350.11 C 644.47 346.50 651.04 343.66 657.36 340.37 C 677.14 330.37 696.90 320.33 717.05 311.11 Z" />
<path fill="#ffcd00" opacity="1.00" d=" M 353.80 384.80 C 391.12 359.61 430.32 337.40 469.24 314.81 C 470.93 320.54 472.42 326.33 473.87 332.13 C 448.29 347.31 423.00 362.98 397.79 378.77 C 391.52 382.81 384.93 386.38 379.01 390.94 C 385.54 388.03 391.63 384.25 397.96 380.93 C 423.85 366.94 449.83 353.09 475.52 338.74 C 479.59 354.36 483.73 369.96 487.45 385.66 C 473.79 394.34 459.49 402.00 445.99 410.90 C 452.88 408.08 459.31 404.28 465.98 400.97 C 473.47 397.20 480.97 393.43 488.43 389.60 C 495.71 417.91 502.48 446.36 508.73 474.92 C 498.64 480.61 488.64 486.51 478.98 492.91 C 489.34 488.35 499.25 482.83 509.32 477.66 C 512.94 493.35 515.50 509.25 518.24 525.11 C 524.07 523.76 526.53 518.02 528.81 513.14 C 532.50 516.74 536.66 520.48 542.17 520.45 C 540.95 501.69 538.00 483.07 536.22 464.35 C 570.58 447.54 604.94 430.72 639.61 414.55 C 672.67 398.71 705.91 383.25 739.46 368.49 C 743.60 366.58 749.07 365.82 752.58 369.39 C 757.33 373.25 756.63 381.31 751.57 384.61 C 743.03 390.37 733.09 393.71 724.31 399.07 C 724.41 401.47 724.86 403.94 724.29 406.32 C 723.09 409.89 719.55 411.80 716.38 413.37 C 684.88 428.38 653.17 442.99 622.31 459.30 C 601.62 470.05 581.43 481.74 561.07 493.09 C 556.66 495.55 552.22 497.98 548.06 500.85 C 562.34 494.04 576.24 486.47 590.38 479.39 C 610.98 469.34 630.55 457.36 650.95 446.94 C 663.72 440.59 676.42 434.06 689.60 428.58 C 694.45 426.63 700.73 425.13 705.11 428.91 C 709.52 432.24 710.02 439.27 706.37 443.34 C 702.64 447.54 697.36 449.80 692.56 452.51 C 674.36 461.88 656.41 471.72 638.36 481.38 C 624.82 488.99 611.41 496.84 598.06 504.79 C 613.66 498.08 629.16 491.14 644.99 484.97 C 665.79 476.66 686.93 469.23 708.08 461.88 C 712.51 460.45 717.08 458.48 721.83 459.25 C 726.93 460.14 730.47 465.89 728.85 470.84 C 727.76 474.69 724.18 476.99 720.93 478.89 C 702.22 489.07 683.11 498.50 664.00 507.87 C 673.32 505.99 682.43 502.64 692.04 502.47 C 695.51 502.35 698.97 503.37 701.99 505.06 C 703.47 505.79 703.90 508.30 702.31 509.21 C 694.85 515.31 685.54 518.28 676.77 521.90 C 638.87 536.14 600.63 549.53 563.29 565.22 C 548.52 571.39 533.82 577.72 519.21 584.24 C 515.25 586.07 510.05 586.61 506.64 583.38 C 501.92 579.60 502.25 571.64 507.12 568.13 C 518.02 559.71 530.30 553.37 541.99 546.17 C 532.07 549.48 522.78 554.57 512.71 557.44 C 506.31 559.52 499.47 552.85 501.49 546.41 C 504.10 538.81 511.21 534.17 516.92 529.01 C 493.46 540.12 470.68 552.66 447.56 564.47 C 443.37 566.44 439.32 568.85 434.83 570.08 C 431.26 571.24 427.10 568.69 426.55 564.98 C 426.00 561.76 427.93 558.87 428.99 555.97 C 421.29 560.31 413.60 564.67 405.74 568.72 C 403.23 570.01 400.10 571.18 397.47 569.52 C 393.64 567.54 392.71 561.88 395.88 558.89 C 406.17 548.52 419.11 541.42 430.92 533.02 C 425.48 534.92 420.53 537.92 415.25 540.19 C 400.96 546.59 387.43 554.52 373.28 561.20 C 368.71 563.28 364.51 566.13 359.82 567.94 C 354.58 569.99 348.20 565.58 348.19 559.98 C 347.89 556.28 350.27 553.16 352.54 550.51 C 359.90 542.10 369.12 535.66 377.96 528.94 C 388.41 521.06 399.31 513.80 409.90 506.12 C 400.86 510.86 392.20 516.27 383.39 521.40 C 381.27 522.54 378.74 523.85 376.33 522.77 C 372.77 521.57 370.59 516.97 372.61 513.62 C 374.25 510.99 376.82 509.16 379.10 507.13 C 387.18 500.16 395.61 493.62 403.90 486.90 C 412.49 480.05 422.27 474.89 430.94 468.17 C 422.01 472.52 413.13 476.98 404.03 480.98 C 401.03 482.24 397.49 483.11 394.43 481.54 C 390.03 479.65 388.17 473.73 390.64 469.64 C 393.35 465.15 397.58 461.86 401.53 458.52 C 414.49 448.22 428.51 439.36 442.36 430.32 C 447.53 426.82 453.12 423.93 458.05 420.08 C 453.51 421.59 449.32 423.95 445.03 426.04 C 412.76 441.85 380.68 458.05 349.01 475.02 C 341.99 478.72 334.82 482.12 327.83 485.87 C 325.15 487.23 322.13 488.70 319.06 487.90 C 314.80 487.01 311.66 482.55 312.35 478.24 C 312.88 474.53 315.58 471.66 318.05 469.05 C 329.56 457.69 342.91 448.46 356.01 439.08 C 348.05 441.92 340.53 445.82 332.66 448.86 C 329.45 450.18 325.37 449.62 323.09 446.86 C 320.65 444.08 320.57 439.69 322.69 436.71 C 326.01 431.81 330.79 428.19 334.96 424.07 C 330.09 425.16 323.93 427.32 319.96 423.03 C 315.68 418.65 318.59 411.99 322.47 408.44 C 332.00 399.43 343.01 392.19 353.80 384.80 Z" />
</g>
<g id="#003448ff">
<path fill="#003448" opacity="1.00" d=" M 493.86 218.01 C 510.68 216.14 527.64 216.26 544.46 218.09 C 545.57 218.24 546.67 218.44 547.77 218.70 C 559.79 221.18 571.60 224.74 582.57 230.31 C 585.81 231.93 588.84 233.94 591.81 236.01 C 599.82 241.62 606.94 248.44 613.02 256.10 C 615.27 258.89 617.26 261.90 619.06 265.01 C 622.25 270.42 624.87 276.13 627.44 281.86 C 627.89 282.92 628.29 284.00 628.64 285.11 C 630.92 292.11 632.92 299.20 634.49 306.39 C 635.10 309.05 635.60 311.74 635.99 314.44 C 636.88 320.88 637.90 327.31 638.20 333.81 C 638.50 339.23 638.63 344.68 638.32 350.11 C 637.57 365.25 633.50 380.42 625.17 393.20 C 616.68 406.20 604.47 416.48 590.95 423.94 C 578.26 430.77 564.41 435.19 550.43 438.50 C 544.95 439.84 539.33 440.49 533.91 442.06 C 534.02 446.67 534.53 451.26 535.28 455.80 C 535.68 458.64 535.95 461.49 536.22 464.35 C 538.00 483.07 540.95 501.69 542.17 520.45 C 536.66 520.48 532.50 516.74 528.81 513.14 C 526.53 518.02 524.07 523.76 518.24 525.11 C 515.50 509.25 512.94 493.35 509.32 477.66 C 509.17 476.98 508.88 475.60 508.73 474.92 C 502.48 446.36 495.71 417.91 488.43 389.60 C 488.08 388.29 487.76 386.97 487.45 385.66 C 483.73 369.96 479.59 354.36 475.52 338.74 C 474.95 336.54 474.41 334.34 473.87 332.13 C 472.42 326.33 470.93 320.54 469.24 314.81 C 468.82 313.39 468.44 311.97 468.12 310.54 C 467.40 307.41 466.65 304.28 465.77 301.19 C 465.33 299.63 464.89 298.07 464.48 296.51 C 462.85 290.12 461.27 283.73 459.36 277.43 C 458.88 275.83 458.47 274.21 458.08 272.59 C 457.50 270.23 456.80 267.90 456.14 265.57 L 455.95 264.69 C 455.56 262.84 455.30 260.98 455.06 259.11 C 459.69 257.06 464.80 257.18 469.76 257.25 C 470.28 257.46 471.31 257.90 471.83 258.12 C 474.26 259.32 476.66 260.63 478.96 262.08 C 479.86 262.81 480.73 263.59 481.58 264.39 C 482.82 265.57 484.05 266.76 485.30 267.94 C 486.11 265.54 486.85 263.11 487.71 260.72 C 488.46 259.42 489.22 258.12 490.03 256.85 C 494.48 253.64 499.48 251.28 504.76 249.78 C 505.52 249.67 507.04 249.46 507.80 249.36 C 509.02 249.89 511.15 249.84 511.40 251.54 C 512.68 257.05 512.89 262.75 513.74 268.34 C 514.00 270.68 514.23 273.02 514.49 275.37 C 514.85 278.99 515.39 282.59 515.87 286.19 C 515.92 286.68 516.02 287.66 516.07 288.15 C 516.68 294.49 517.59 300.79 518.34 307.12 C 518.64 309.86 518.92 312.60 519.21 315.35 C 519.88 322.42 520.82 329.46 521.81 336.50 L 521.88 337.36 C 522.18 341.55 522.56 345.75 523.32 349.89 C 526.87 349.88 530.41 349.51 533.93 348.94 C 542.92 347.54 552.02 346.52 560.80 344.01 C 570.59 342.17 580.25 339.41 589.31 335.23 C 595.99 332.04 602.80 327.74 605.89 320.69 C 608.44 312.48 605.79 303.74 603.81 295.68 C 603.70 295.30 603.46 294.54 603.34 294.16 C 601.28 288.02 598.33 282.15 594.46 276.94 C 592.52 274.33 590.41 271.84 588.15 269.52 C 580.22 261.52 570.49 255.15 559.71 251.78 C 556.29 250.59 552.86 249.45 549.33 248.65 C 537.57 246.07 525.40 245.11 513.39 246.00 C 512.91 246.03 511.93 246.10 511.45 246.13 C 504.64 246.06 497.81 246.49 491.15 247.92 C 488.83 248.27 486.50 248.56 484.20 248.94 C 470.30 250.08 456.94 254.36 443.27 256.77 C 441.69 252.66 441.56 248.15 442.77 243.92 C 443.74 242.69 444.70 241.45 445.66 240.21 C 444.52 239.82 443.39 239.45 442.28 239.03 C 439.12 236.65 436.76 233.21 436.57 229.17 C 448.72 225.38 461.35 223.37 473.80 220.79 C 480.47 219.78 487.14 218.66 493.86 218.01 Z" />
</g>
<g id="#ff5022ff">
<path fill="#ff5022" opacity="1.00" d=" M 198.18 554.34 C 201.22 554.08 204.59 553.89 207.22 555.75 C 210.79 558.08 212.39 562.21 214.31 565.83 C 217.16 562.85 219.55 559.19 223.45 557.48 C 228.21 555.11 233.86 555.37 238.76 557.20 C 237.46 575.49 235.19 593.73 234.53 612.08 C 232.97 636.69 232.41 661.35 231.84 686.01 C 231.55 709.70 231.60 733.42 233.10 757.08 C 233.54 760.88 233.40 765.06 235.55 768.40 C 237.45 770.03 239.81 771.00 241.95 772.28 C 242.70 776.91 238.79 779.58 235.37 781.67 C 237.08 782.93 238.94 784.06 240.37 785.68 C 241.65 787.44 241.56 789.74 241.84 791.82 C 231.73 792.32 222.37 786.32 216.81 778.19 C 209.70 767.99 206.07 755.84 203.18 743.88 C 197.74 720.30 195.91 696.08 194.71 671.98 C 193.74 642.59 194.00 613.16 195.57 583.79 C 196.40 573.98 196.14 564.01 198.18 554.34 Z" />
<path fill="#ff5022" opacity="1.00" d=" M 266.94 623.19 C 291.04 620.56 315.88 621.62 339.13 628.95 C 350.50 632.71 357.52 643.50 362.00 654.01 C 369.80 672.14 372.61 691.87 375.41 711.26 C 378.73 738.06 379.95 765.07 382.79 791.92 C 376.32 792.53 369.73 791.46 363.57 789.49 C 359.66 788.27 357.57 784.53 355.00 781.65 C 347.78 787.53 339.05 791.29 329.91 792.92 C 329.75 791.09 329.63 789.27 329.50 787.46 C 312.85 790.59 295.29 792.14 278.84 787.19 C 268.15 783.92 258.46 776.04 254.70 765.30 C 251.42 755.57 251.05 745.17 251.27 734.99 C 251.28 723.45 252.79 711.92 255.77 700.77 C 257.52 693.33 261.17 685.99 267.71 681.69 C 278.89 674.22 292.93 673.37 305.97 673.79 C 314.64 673.97 323.17 675.63 331.78 676.34 C 331.26 669.77 329.87 662.79 325.16 657.85 C 319.90 652.06 312.46 648.87 305.02 646.92 C 292.94 643.62 280.32 643.56 267.89 643.68 C 267.91 641.29 267.97 638.59 269.74 636.76 C 271.38 635.16 273.42 634.06 275.31 632.81 C 272.95 631.88 270.29 631.42 268.29 629.78 C 266.54 628.05 266.71 625.43 266.94 623.19 M 289.44 715.58 C 283.72 716.20 277.86 717.67 273.19 721.18 C 269.35 724.23 267.63 729.09 266.50 733.70 C 264.22 743.00 265.78 753.54 271.84 761.13 C 276.58 766.53 284.25 767.55 291.00 768.22 C 304.85 768.96 318.77 767.65 332.42 765.42 C 334.39 750.20 335.00 734.76 334.56 719.42 C 319.77 716.24 304.57 714.35 289.44 715.58 Z" />
<path fill="#ff5022" opacity="1.00" d=" M 51.13 633.39 C 62.06 632.24 73.07 633.13 84.02 633.48 C 104.36 634.80 125.06 638.23 143.38 647.60 C 157.52 654.69 169.65 666.26 176.28 680.73 C 182.86 695.08 184.16 711.28 182.73 726.85 C 181.62 744.00 176.89 761.96 164.69 774.67 C 150.95 789.21 130.62 795.53 111.10 796.66 C 103.25 797.41 95.36 796.60 87.53 797.21 C 86.16 810.79 84.56 824.35 82.96 837.91 C 82.35 842.95 82.21 848.08 80.87 853.02 C 77.21 851.96 74.89 848.83 72.27 846.30 C 69.63 848.98 66.96 852.15 62.90 852.40 C 65.00 810.61 63.56 768.73 62.44 726.93 C 61.77 703.61 60.52 680.30 59.95 656.98 C 64.07 656.29 68.42 656.79 72.09 658.88 C 75.64 660.67 77.87 664.08 80.30 667.09 C 82.94 664.79 84.89 661.59 88.21 660.17 C 92.60 658.17 97.57 658.32 102.26 658.89 C 102.72 666.33 101.06 673.68 100.45 681.07 C 98.85 697.69 96.59 714.25 95.29 730.89 C 101.40 732.26 107.70 732.27 113.92 732.65 C 124.83 732.86 135.93 733.37 146.63 730.80 C 152.53 729.44 159.41 726.85 161.52 720.57 C 163.19 714.22 162.98 707.45 161.94 701.02 C 158.71 684.12 145.33 670.74 129.86 664.18 C 105.35 653.80 78.21 653.61 52.04 653.67 C 50.69 649.38 53.10 645.60 55.57 642.34 C 53.17 639.88 50.95 637.03 51.13 633.39 Z" />
<path fill="#ff5022" opacity="1.00" d=" M 425.14 640.22 C 437.73 635.72 451.38 635.27 464.55 636.66 C 473.32 637.84 482.31 640.14 489.55 645.42 C 496.77 651.00 500.32 659.84 502.68 668.37 C 507.72 687.12 507.70 706.71 507.38 725.98 C 506.89 742.72 505.36 759.42 503.02 776.00 C 502.46 779.75 502.30 783.61 501.09 787.24 C 498.15 789.39 494.00 788.94 490.61 788.28 C 486.62 787.34 485.11 783.15 483.25 779.99 C 481.88 782.59 481.04 785.78 478.44 787.46 C 474.27 790.03 468.86 789.92 464.44 788.09 C 465.36 779.20 467.33 770.46 468.34 761.59 C 469.96 747.11 471.45 732.58 471.41 717.99 C 471.62 704.26 471.24 690.39 468.10 676.96 C 466.61 670.81 464.36 663.80 458.28 660.76 C 449.78 656.64 439.10 656.14 430.67 660.69 C 425.58 663.33 422.37 668.48 420.81 673.86 C 415.45 691.76 413.07 710.37 411.24 728.92 C 409.38 747.93 408.99 767.05 408.80 786.14 C 406.94 785.26 405.08 784.40 403.22 783.55 C 401.31 784.69 399.40 785.81 397.49 786.94 C 395.72 758.36 393.30 729.67 395.53 701.03 C 396.66 685.64 398.82 669.84 405.94 655.95 C 409.80 648.26 417.02 642.78 425.14 640.22 Z" />
</g>
<g id="#008576ff">
<path fill="#008576" opacity="1.00" d=" M 565.78 631.78 C 579.48 627.84 593.82 627.00 608.00 626.93 C 620.29 627.14 632.71 627.42 644.75 630.19 C 645.03 634.11 645.11 638.43 642.80 641.81 C 640.93 644.05 638.16 645.23 635.80 646.87 C 639.73 652.51 641.82 659.29 640.85 666.19 C 626.87 667.41 613.04 662.39 599.05 663.97 C 593.79 664.68 589.45 668.44 587.08 673.05 C 581.39 683.54 578.96 695.40 577.00 707.07 C 574.80 722.33 573.41 738.12 576.85 753.30 C 578.43 758.68 580.82 765.82 587.37 766.46 C 594.03 766.87 601.18 767.37 607.46 764.71 C 609.32 743.20 609.71 721.59 609.20 700.02 C 608.93 692.25 608.41 684.48 608.42 676.71 C 613.41 676.22 616.59 680.21 619.58 683.52 C 622.11 680.41 624.35 676.16 628.79 675.67 C 631.94 717.65 633.11 759.92 629.53 801.92 C 627.82 819.01 625.26 836.20 619.50 852.45 C 615.96 861.59 611.48 871.70 602.09 876.13 C 589.31 882.39 574.72 880.61 560.99 880.69 C 539.56 880.14 518.13 879.82 496.73 878.58 C 470.29 878.03 443.90 876.47 417.48 875.35 C 410.21 874.57 402.78 875.02 395.65 873.25 C 393.66 867.74 393.65 861.39 396.01 856.00 C 397.59 852.34 401.27 850.41 404.21 847.99 C 402.25 844.09 399.82 840.25 399.45 835.80 C 398.92 829.30 398.83 822.51 401.12 816.31 C 421.25 819.58 441.62 820.96 461.98 821.92 C 479.65 822.55 497.32 823.50 515.01 823.42 C 538.60 823.42 562.27 824.04 585.78 821.56 C 589.04 821.05 592.80 820.80 595.18 818.20 C 597.70 815.32 598.79 811.55 600.01 808.02 C 601.96 801.56 603.76 794.95 603.94 788.17 C 598.54 788.46 593.30 789.89 587.94 790.53 C 579.36 791.60 570.68 791.69 562.04 791.36 C 554.04 790.80 545.53 789.14 539.30 783.73 C 534.45 779.51 532.55 773.11 530.89 767.14 C 525.67 747.22 526.04 726.41 526.48 705.99 C 527.60 691.53 529.02 676.99 532.96 662.98 C 534.92 656.04 537.46 648.87 542.71 643.70 C 549.04 637.57 557.40 634.10 565.78 631.78 Z" />
<path fill="#008576" opacity="1.00" d=" M 943.05 637.10 C 953.01 632.57 964.12 630.97 975.00 631.17 C 985.37 631.21 996.11 632.65 1005.31 637.73 C 1011.98 641.36 1015.66 648.66 1017.05 655.89 C 1019.18 667.53 1018.09 679.64 1014.86 690.98 C 1012.50 698.31 1008.89 705.95 1001.99 710.00 C 994.12 714.59 984.97 716.10 976.10 717.45 C 963.22 719.43 950.15 719.32 937.16 719.42 C 935.13 719.16 935.80 721.76 935.75 722.94 C 936.27 731.17 938.71 740.21 945.83 745.19 C 956.30 753.50 970.23 754.28 983.02 755.11 C 992.66 755.83 1002.29 754.80 1011.93 754.86 C 1014.28 758.44 1014.68 763.44 1012.13 767.02 C 1009.89 770.34 1005.75 771.34 1002.78 773.80 C 1006.96 774.67 1011.54 774.43 1015.33 776.66 C 1018.86 779.05 1019.30 783.80 1018.76 787.68 C 1007.81 790.85 996.25 790.51 984.98 791.25 C 974.54 791.15 963.76 792.60 953.64 789.33 C 945.31 786.60 937.40 782.00 931.85 775.11 C 923.31 764.69 919.36 751.40 916.81 738.40 C 912.85 713.22 913.86 686.78 922.75 662.71 C 926.80 652.52 932.76 642.02 943.05 637.10 M 956.76 651.67 C 953.12 652.51 949.07 653.65 946.95 657.00 C 944.05 661.65 942.60 667.11 942.11 672.54 C 948.69 673.44 955.35 673.46 961.98 673.39 C 971.09 673.06 980.49 672.52 989.00 668.98 C 994.80 666.70 996.18 658.29 992.08 653.88 C 989.40 651.28 985.51 650.62 981.96 650.15 C 973.55 649.28 965.01 649.90 956.76 651.67 Z" />
<path fill="#008576" opacity="1.00" d=" M 662.82 636.06 C 662.95 634.74 663.32 633.50 663.92 632.32 C 667.09 634.26 669.70 636.92 672.39 639.46 C 675.98 637.85 679.30 635.53 683.28 634.94 C 683.38 637.66 683.22 640.38 682.86 643.09 C 679.89 666.95 676.36 690.88 676.95 715.00 C 677.20 721.31 677.76 727.80 680.37 733.64 C 681.85 737.18 685.59 738.95 689.07 739.95 C 698.36 742.42 708.05 743.17 717.64 742.67 C 717.59 706.82 715.94 670.96 716.24 635.12 C 722.64 633.57 729.49 633.44 735.86 635.20 C 739.89 636.26 742.88 639.29 746.06 641.79 C 753.79 636.17 764.05 630.89 773.56 635.43 C 774.01 639.60 773.42 643.78 773.27 647.96 C 771.15 679.93 769.69 711.95 767.42 743.91 C 766.91 753.23 766.63 762.56 765.76 771.85 C 765.12 779.67 765.20 787.54 764.29 795.33 C 759.66 796.90 754.40 797.09 749.90 795.03 C 746.70 793.38 744.52 790.39 741.89 788.02 C 737.92 790.69 734.39 794.29 729.63 795.52 C 726.11 796.62 722.33 796.23 718.94 794.91 C 718.50 791.04 718.63 787.14 718.58 783.26 C 711.20 782.38 703.72 783.15 696.38 781.83 C 687.02 780.26 677.14 778.49 669.46 772.52 C 662.95 767.46 660.36 759.15 658.64 751.42 C 655.31 735.18 655.33 718.46 656.18 701.98 C 656.88 679.88 659.99 657.96 662.82 636.06 Z" />
<path fill="#008576" opacity="1.00" d=" M 810.20 644.24 C 819.10 638.81 829.67 636.85 839.95 636.18 C 853.73 635.39 868.19 636.80 880.48 643.55 C 888.06 647.80 892.33 655.94 895.02 663.89 C 899.79 678.76 900.88 694.49 901.23 710.01 C 901.61 734.38 899.30 758.71 895.76 782.80 C 895.22 784.82 895.26 788.07 892.58 788.41 C 889.66 788.98 886.54 789.03 883.69 788.14 C 880.12 786.81 878.72 782.94 876.94 779.92 C 875.62 782.48 874.84 785.62 872.34 787.34 C 868.08 790.02 862.49 790.03 858.01 787.87 C 863.35 756.76 866.80 725.04 864.40 693.45 C 863.70 686.63 862.78 679.77 860.78 673.19 C 859.33 668.84 857.42 664.17 853.38 661.62 C 847.37 657.84 839.93 656.99 833.01 657.84 C 826.35 658.77 819.63 662.39 816.63 668.64 C 813.58 674.96 812.31 681.95 810.73 688.74 C 804.24 720.73 802.47 753.47 802.58 786.05 C 800.66 785.30 798.78 784.47 796.95 783.54 C 795.08 784.65 793.23 785.79 791.41 786.96 C 789.94 768.34 788.40 749.69 788.52 731.00 C 788.30 710.86 788.72 690.46 793.89 670.87 C 796.56 660.73 801.02 650.12 810.20 644.24 Z" />
</g>
</svg>
