<?xml version="1.0" encoding="UTF-8" ?>
<!DOCTYPE svg PUBLIC "-//W3C//DTD SVG 1.1//EN" "http://www.w3.org/Graphics/SVG/1.1/DTD/svg11.dtd">
<svg width="1875pt" height="667pt" viewBox="0 0 1875 667" version="1.1" xmlns="http://www.w3.org/2000/svg">
<g id="#f2512aff">
<path fill="#f2512a" opacity="1.00" d=" M 297.74 26.92 C 303.45 25.81 309.85 25.68 314.83 29.15 C 321.85 33.61 325.35 41.55 328.37 48.96 C 332.62 41.88 338.23 35.08 346.10 31.94 C 354.89 28.04 365.02 28.86 373.93 31.93 C 368.80 79.13 365.44 126.50 363.54 173.94 C 360.70 241.92 359.35 310.02 361.65 378.03 C 362.21 389.75 362.74 401.48 364.26 413.12 C 364.83 416.92 365.41 421.01 367.98 424.04 C 370.81 427.00 375.07 427.66 378.79 428.93 C 379.69 433.17 379.24 437.94 376.36 441.35 C 373.58 444.48 369.45 445.82 365.74 447.49 C 369.53 449.41 373.78 451.12 376.27 454.76 C 378.76 458.28 378.60 462.77 378.83 466.88 C 366.21 466.84 353.63 462.24 344.17 453.86 C 334.25 445.35 327.26 433.97 321.98 422.15 C 310.73 396.81 305.13 369.43 300.77 342.19 C 293.23 292.18 291.10 241.54 290.76 191.03 C 290.55 142.33 292.22 93.62 295.81 45.06 C 296.24 38.99 296.82 32.93 297.74 26.92 Z" />
<path fill="#f2512a" opacity="1.00" d=" M 425.44 154.12 C 465.97 149.88 507.46 150.87 547.05 161.22 C 556.11 163.68 565.48 166.17 573.13 171.88 C 585.29 180.74 593.56 193.84 599.82 207.29 C 610.71 230.94 616.45 256.52 621.07 282.03 C 631.65 343.28 633.60 405.54 640.03 467.28 C 627.87 467.31 615.60 465.95 604.03 462.13 C 596.84 459.76 592.51 453.07 588.91 446.86 C 583.51 451.22 578.34 456.11 571.89 458.89 C 562.04 463.21 551.86 466.95 541.26 468.97 C 541.43 465.50 541.61 462.04 541.79 458.57 C 515.24 463.14 487.88 466.19 461.15 461.33 C 446.69 458.88 432.57 453.20 421.31 443.66 C 413.63 437.03 407.16 428.75 403.58 419.18 C 399.44 408.26 397.95 396.56 396.99 384.99 C 395.67 364.94 396.66 344.75 399.40 324.86 C 401.39 310.90 404.38 296.99 409.58 283.84 C 415.12 270.47 426.96 260.47 440.36 255.47 C 463.02 246.58 487.98 246.92 511.86 248.81 C 523.21 249.80 534.49 251.47 545.76 253.15 C 544.49 242.76 543.20 231.77 537.05 222.95 C 529.04 211.39 516.10 204.41 503.01 200.12 C 478.61 192.24 452.62 191.57 427.21 192.39 C 427.35 187.94 427.58 183.09 430.48 179.45 C 433.62 175.59 438.45 173.80 442.72 171.51 C 437.78 170.48 432.16 170.31 428.29 166.65 C 424.98 163.37 425.36 158.39 425.44 154.12 M 437.42 335.47 C 430.16 341.07 426.91 350.15 424.84 358.76 C 420.36 375.95 423.64 395.28 434.39 409.54 C 443.21 419.60 457.40 421.53 469.98 422.78 C 495.79 424.53 521.62 421.32 547.16 417.86 C 549.77 389.45 551.93 360.92 550.85 332.37 C 524.98 326.96 498.50 323.34 472.03 324.93 C 459.96 325.87 447.41 328.22 437.42 335.47 Z" />
<path fill="#f2512a" opacity="1.00" d=" M 26.60 172.51 C 60.08 171.43 93.74 172.42 126.88 177.55 C 158.77 182.84 190.78 192.59 217.20 211.79 C 233.12 223.45 246.61 238.60 255.60 256.21 C 262.29 269.45 266.64 283.82 268.78 298.48 C 271.30 315.21 270.78 332.22 269.55 349.03 C 267.30 376.35 260.35 404.37 243.47 426.50 C 226.16 449.31 199.65 463.57 172.21 470.28 C 154.49 474.59 136.20 476.02 118.01 476.24 C 109.92 476.42 101.84 475.78 93.75 476.08 C 90.68 503.08 87.61 530.08 84.55 557.09 C 83.66 564.72 83.08 572.41 81.47 579.95 C 74.39 578.15 69.38 572.43 65.45 566.62 C 61.09 572.43 55.56 578.86 47.59 578.73 C 49.19 555.52 49.94 532.26 49.91 509.01 C 50.17 463.66 49.16 418.32 47.81 372.99 C 46.39 321.00 44.26 269.04 42.23 217.08 C 51.71 214.82 62.00 217.35 69.63 223.32 C 74.39 226.85 77.45 232.03 80.53 236.96 C 83.68 232.39 86.46 227.18 91.46 224.35 C 100.32 218.87 111.29 218.89 121.26 220.48 C 121.26 228.54 120.07 236.53 119.29 244.53 C 115.47 280.97 111.46 317.38 107.44 353.80 C 114.71 355.45 122.19 355.58 129.60 356.16 C 150.07 357.59 170.73 358.27 191.14 355.71 C 201.10 354.25 211.31 352.27 220.02 346.96 C 223.75 344.77 227.02 341.70 229.06 337.85 C 231.45 333.63 231.60 328.65 232.17 323.95 C 233.92 306.04 230.65 287.37 221.13 271.93 C 211.70 256.08 197.47 243.38 181.30 234.68 C 148.31 217.62 110.66 212.92 74.03 211.19 C 58.59 210.40 43.12 210.97 27.67 210.64 C 27.49 206.59 26.95 202.36 28.36 198.46 C 29.72 194.89 32.78 192.41 35.40 189.77 C 32.71 187.44 29.59 185.32 27.95 182.05 C 26.68 179.04 26.74 175.70 26.60 172.51 Z" />
<path fill="#f2512a" opacity="1.00" d=" M 704.01 192.19 C 720.44 183.05 739.29 179.16 757.92 178.12 C 777.23 177.05 796.88 178.58 815.40 184.38 C 826.10 187.96 836.89 192.87 844.40 201.57 C 853.74 212.25 858.76 225.90 862.38 239.41 C 869.18 266.03 870.75 293.64 871.00 321.01 C 871.05 365.59 866.91 410.09 860.13 454.13 C 859.64 455.93 859.74 458.65 857.59 459.38 C 850.70 461.16 842.94 461.93 836.35 458.74 C 830.59 455.62 828.23 449.07 826.16 443.26 C 824.02 448.63 822.61 455.06 817.38 458.35 C 809.52 463.39 799.50 462.66 790.99 459.82 C 791.72 450.83 793.84 442.05 795.18 433.15 C 799.41 406.98 801.72 380.54 803.42 354.09 C 804.44 326.57 805.02 298.87 801.20 271.52 C 799.46 259.72 797.46 247.69 792.13 236.89 C 789.45 230.93 784.74 225.93 778.76 223.22 C 767.55 218.02 754.66 216.50 742.52 218.71 C 732.09 220.56 721.93 226.12 716.17 235.22 C 712.10 241.19 710.40 248.30 708.40 255.14 C 702.43 276.36 698.92 298.17 696.05 320.00 C 691.34 357.49 688.81 395.25 688.52 433.03 C 688.52 440.92 688.72 448.82 688.22 456.70 C 684.36 455.39 681.11 452.89 678.22 450.09 C 674.97 453.10 671.45 455.88 667.42 457.78 C 663.54 403.39 659.75 348.74 663.83 294.24 C 665.97 271.03 669.17 247.57 677.78 225.75 C 682.98 212.38 691.31 199.47 704.01 192.19 Z" />
</g>
<g id="#008476ff">
<path fill="#008476" opacity="1.00" d=" M 1015.98 163.12 C 1037.32 160.74 1058.85 160.62 1080.28 161.66 C 1095.28 162.53 1110.35 163.68 1125.03 167.05 C 1125.45 174.28 1125.50 182.14 1121.37 188.43 C 1118.27 193.51 1112.28 195.32 1107.12 197.51 C 1116.43 207.29 1119.52 221.66 1117.32 234.74 C 1092.73 234.66 1068.54 228.40 1043.92 229.37 C 1034.88 229.63 1026.06 234.40 1021.05 241.96 C 1013.31 253.77 1008.78 267.32 1005.34 280.91 C 997.48 312.58 993.64 345.49 996.46 378.08 C 997.90 390.60 1000.07 403.81 1007.88 414.12 C 1012.71 419.95 1021.03 420.10 1027.99 420.21 C 1037.24 420.17 1046.55 419.52 1055.56 417.36 C 1060.77 362.79 1060.31 307.85 1057.23 253.17 C 1061.61 253.66 1066.42 253.94 1070.00 256.86 C 1073.30 259.63 1075.68 263.29 1078.27 266.71 C 1081.96 259.66 1087.47 252.95 1095.42 250.69 C 1099.09 302.69 1101.40 354.82 1100.62 406.96 C 1100.11 436.40 1098.90 465.85 1095.66 495.12 C 1092.79 520.23 1088.83 545.35 1081.36 569.55 C 1076.59 584.18 1070.80 598.91 1061.05 611.01 C 1054.38 619.45 1044.35 624.32 1034.23 627.29 C 1019.90 631.42 1004.85 631.86 990.04 631.65 C 928.65 630.76 867.32 628.04 805.97 625.98 C 763.60 624.03 721.21 622.57 678.90 619.56 C 673.93 619.22 668.98 618.64 664.08 617.82 C 660.20 607.24 660.32 595.16 664.84 584.80 C 667.92 578.07 674.61 574.18 680.85 570.78 C 674.55 563.73 671.19 554.44 670.56 545.08 C 669.57 533.82 670.76 522.42 673.67 511.52 C 697.81 516.38 722.42 518.10 746.94 519.95 C 793.89 523.29 840.96 524.68 888.02 525.30 C 921.34 525.75 954.68 525.41 987.97 523.94 C 1000.11 523.34 1012.24 522.24 1024.23 520.21 C 1029.34 519.37 1033.90 515.93 1036.20 511.30 C 1044.03 495.12 1047.48 477.30 1050.07 459.64 C 1038.93 460.72 1028.01 463.35 1016.87 464.40 C 995.44 466.69 973.40 467.82 952.28 462.72 C 939.50 459.62 926.68 452.46 920.96 440.06 C 912.54 421.91 909.77 401.77 907.56 382.07 C 903.93 341.99 904.85 301.43 910.84 261.62 C 913.96 242.42 917.81 223.00 926.36 205.38 C 933.19 191.52 946.62 182.41 960.43 176.41 C 978.00 168.79 997.06 165.40 1015.98 163.12 Z" />
<path fill="#008476" opacity="1.00" d=" M 1705.47 171.26 C 1728.22 167.45 1751.91 167.81 1774.29 173.71 C 1783.78 176.52 1793.40 180.39 1800.62 187.38 C 1807.63 194.41 1811.63 203.90 1813.70 213.49 C 1818.14 235.19 1815.94 257.81 1810.07 279.02 C 1806.36 291.15 1800.92 303.58 1790.82 311.73 C 1782.76 318.07 1772.85 321.42 1763.07 324.06 C 1730.48 332.25 1696.64 332.37 1663.26 332.54 C 1663.77 343.90 1664.93 355.61 1670.10 365.93 C 1672.57 371.12 1676.41 375.57 1680.90 379.14 C 1689.81 386.08 1700.07 391.47 1711.21 393.74 C 1741.73 400.08 1773.14 399.37 1804.11 397.70 C 1808.95 404.35 1809.80 414.06 1804.82 420.87 C 1800.40 427.38 1792.46 429.64 1785.77 432.97 C 1794.01 434.78 1803.06 433.97 1810.64 438.26 C 1817.15 442.70 1818.14 451.44 1817.62 458.68 C 1806.48 462.37 1794.67 462.85 1783.08 463.91 C 1762.08 465.53 1741.02 465.98 1719.97 465.89 C 1700.07 465.17 1680.44 457.67 1665.21 444.82 C 1652.49 433.74 1644.00 418.64 1638.10 403.02 C 1629.75 380.60 1625.94 356.72 1624.73 332.90 C 1623.62 307.14 1625.41 281.20 1630.94 255.99 C 1636.24 233.15 1644.23 209.90 1660.28 192.26 C 1671.80 179.47 1689.12 174.41 1705.47 171.26 M 1698.77 207.79 C 1693.08 209.19 1687.14 211.79 1683.99 217.00 C 1678.81 225.65 1676.70 235.66 1674.91 245.46 C 1698.89 248.17 1723.37 248.08 1747.12 243.49 C 1752.90 242.36 1758.72 240.87 1763.95 238.05 C 1774.91 232.05 1774.91 213.09 1763.37 207.73 C 1757.02 204.69 1749.86 204.12 1742.95 203.69 C 1728.13 203.00 1713.20 204.34 1698.77 207.79 Z" />
<path fill="#008476" opacity="1.00" d=" M 1159.39 170.74 C 1166.10 174.07 1171.41 179.47 1176.43 184.91 C 1182.57 180.47 1189.43 176.36 1197.22 176.02 C 1191.46 224.18 1183.86 272.37 1184.51 321.01 C 1184.69 333.66 1185.78 346.60 1190.59 358.43 C 1193.35 365.18 1200.43 368.68 1207.08 370.55 C 1224.28 375.07 1242.18 376.07 1259.90 375.80 C 1259.28 320.20 1258.04 264.61 1257.21 209.01 C 1257.17 198.03 1256.51 187.04 1257.08 176.07 C 1270.27 173.30 1284.44 172.80 1297.17 177.80 C 1303.29 179.96 1308.01 184.63 1312.33 189.29 C 1320.12 182.84 1328.94 177.21 1338.94 174.98 C 1347.27 173.07 1356.78 172.73 1364.21 177.62 C 1359.40 254.72 1354.91 331.85 1350.22 408.96 C 1348.80 430.33 1347.96 451.74 1346.13 473.08 C 1337.62 476.03 1327.86 476.53 1319.60 472.53 C 1313.23 469.61 1309.23 463.62 1304.51 458.74 C 1298.60 464.23 1292.46 469.93 1284.65 472.53 C 1277.35 475.33 1269.03 475.16 1261.88 472.00 C 1261.42 464.72 1261.64 457.41 1261.20 450.13 C 1237.99 450.27 1214.39 448.99 1192.16 441.75 C 1180.90 438.05 1169.63 432.30 1162.54 422.48 C 1156.98 414.23 1153.59 404.71 1151.34 395.08 C 1147.02 376.40 1145.73 357.18 1145.39 338.06 C 1144.64 281.97 1151.78 226.19 1159.39 170.74 Z" />
<path fill="#008476" opacity="1.00" d=" M 1428.75 194.79 C 1444.37 184.19 1463.40 180.25 1481.91 178.40 C 1503.09 176.93 1524.84 177.87 1545.10 184.75 C 1554.59 188.09 1564.23 192.21 1571.27 199.67 C 1582.74 211.44 1588.04 227.55 1592.00 243.13 C 1597.61 266.98 1599.23 291.57 1599.48 316.00 C 1600.12 359.21 1596.39 402.41 1590.11 445.14 C 1589.21 449.79 1589.38 454.90 1586.91 459.07 C 1580.18 461.33 1572.54 461.74 1565.86 459.12 C 1559.52 456.14 1556.86 449.12 1554.51 443.01 C 1552.90 448.31 1551.63 454.43 1546.84 457.85 C 1538.79 463.27 1527.92 463.37 1519.33 459.16 C 1528.58 410.35 1533.52 360.62 1532.76 310.92 C 1532.39 296.26 1531.62 281.57 1529.24 267.08 C 1527.50 255.60 1524.94 243.99 1519.15 233.80 C 1516.10 228.25 1510.70 224.35 1504.91 222.03 C 1495.44 218.27 1485.01 217.08 1474.91 218.13 C 1464.86 219.24 1454.85 223.42 1447.99 231.02 C 1441.81 238.02 1439.16 247.21 1436.81 256.04 C 1426.26 296.16 1422.06 337.62 1419.12 378.90 C 1417.53 404.78 1417.15 430.72 1417.07 456.65 C 1413.04 455.34 1409.66 452.77 1406.43 450.14 C 1403.53 453.25 1400.17 455.92 1396.36 457.82 C 1392.24 406.02 1388.75 353.96 1391.99 302.00 C 1393.68 278.63 1396.52 255.08 1403.89 232.74 C 1408.69 218.30 1416.03 203.80 1428.75 194.79 Z" />
</g>
</svg>
