<svg xmlns="http://www.w3.org/2000/svg" width="2640" height="500pt" viewBox="0 0 1980 500"><path id="#003749ff" fill="#003749" d="M329.68 79.68c14.16-11.95 31.44-21.28 50.23-22.43 19.07-1.27 37.88 6.35 52.35 18.49 9.6 8.14 18.33 17.8 23.72 29.28-6.9-7.78-14.09-15.61-23.3-20.69-16.93-10.21-38.2-12.58-57.02-6.59-22.75 7.22-40.87 24.26-54.76 43.13-9.47 13.62-18.49 27.54-27.69 41.34-4.08 6.08-8.04 12.27-12.83 17.83-9.19 4.38-17.21 10.82-26.41 15.21a24 24 0 0 1 2.38-4.88c10.27-15.4 17.27-32.63 26.21-48.77 11.98-23.12 27.31-44.84 47.12-61.92m424.21 30.45c16.36-.4 32.74-.04 49.11-.16 4.95.08 9.92-.25 14.86.15.36 86.29-.02 172.6.19 258.89-.02 10.13 1.81 20.15 4.56 29.87-17.53.39-35.08.01-52.61.17-3.25-.01-6.51.18-9.72-.32-2.74-6.91-3.83-14.36-4.52-21.73-7.42 11.12-19.15 18.61-31.46 23.28-12.69 4.87-26.59 4.84-39.88 3.09-17.12-2.59-33.83-9.38-46.91-20.88-12.96-11.17-22.31-26.18-27.65-42.36-5.73-17.22-7.43-35.59-6.27-53.64 1.44-16.54 5.25-33.08 13.12-47.79 7.8-14.8 19.65-27.52 34.22-35.82 18.05-10.3 39.47-14.03 60.02-11.74 17.21 2.93 33.27 13 42.76 27.76-.22-28.97-.04-57.93-.1-86.9.19-7.28-.42-14.6.28-21.87M702.36 248.5a41 41 0 0 0-15.5 6.37c-10.31 6.94-16.18 18.9-18.12 30.92-1.83 11.73-1.08 24.09 3.3 35.2 3.86 9.6 11.1 18.05 20.66 22.3 10.65 4.76 23.11 5.15 34.17 1.54 10.22-3.36 18.41-11.63 22.48-21.49 4.89-11.43 5.3-24.23 3.7-36.4-2.02-12.04-7.11-24.32-17.2-31.77-9.47-7.12-22.05-8.81-33.49-6.67m379.57-138.37c16.01-.41 32.04-.04 48.07-.16 7.28.14 14.58-.28 21.86.15.42 43.58-.15 87.19.28 130.77 13.42-13.16 26.63-26.54 39.91-39.84 2.31-2.09 4.31-5.51 7.89-5.12 29.09.11 58.19-.21 87.28.17-4.39 5.59-9.95 10.14-14.81 15.32l-46.99 47c-6.04 6.31-12.66 12.1-18.37 18.71.89 3.02 3.28 5.29 5 7.86 24.01 33.33 48.06 66.63 72.04 99.98 3.22 4.68 6.89 9.05 9.84 13.92-24.97.3-49.95-.03-74.92.15-2.27 0-4.54.1-6.76-.27-4.1-4.66-7.18-10.14-10.93-15.08-13.18-18.82-26.43-37.61-39.59-56.44-.81-.78-1.35-2.18-2.59-2.24-3.01 2.65-7.47 5.36-7.16 9.92-.07 21.31.21 42.63-.11 63.93q-34.97.36-69.94 0c-.68-9.6-.08-19.25-.28-28.86V123c.04-4.29-.27-8.6.28-12.87m471.31.05c15.23-.52 30.51-.06 45.76-.21 8.2.21 16.44-.46 24.61.33V353c.06 10.67-.46 21.42 1.34 31.99.63 4.7 2.08 9.24 2.92 13.9-16.29.36-32.58.03-48.87.14-6.26-.16-12.55.38-18.78-.25-2.86-6.53-4.03-13.67-4.63-20.73-9.56 13.22-24.65 21.62-40.33 25.28-7.61 1.94-15.53 1.57-23.3 1.26-18.68-1.5-37.35-7.61-52.11-19.39-15.55-12.08-26.16-29.67-31.68-48.4-5.4-17.95-6.42-36.96-4.65-55.54 1.87-16.37 6.41-32.62 14.87-46.85a87.2 87.2 0 0 1 40.04-35.92c16.18-7 34.27-9.82 51.8-7.85 12.37 1.8 23.97 7.66 33.32 15.87 3.67 3.09 6.24 7.19 9.42 10.74.49-35.68-.06-71.39.27-107.07m-48.88 143.29c-10.14 2.01-19.42 8.3-24.57 17.33-8.08 13.98-8.52 31.58-3.21 46.61 4.03 11.38 13.81 20.61 25.61 23.45 13.1 3.27 28.44 1.41 38.64-8.03 7.1-6.69 10.8-16.31 11.87-25.87.97-10.41.14-21.17-3.76-30.95-3.04-7.57-8.21-14.48-15.36-18.58-8.75-5.1-19.44-5.76-29.22-3.96M466.93 138.8c1.64 3.52 2.32 7.36 3.14 11.12 5.8 27 10.44 54.32 12.35 81.89.79 16.69.75 33.42.1 50.12-2.13 23.72-6.55 47.51-16.15 69.43-11.14 26.31-30.18 49.39-54.58 64.42-25.75 16.01-55.99 23.97-86.05 25.92q6.33-1.13 12.71-2.12c27.72-5.17 54.79-17.11 74.91-37.23 22.86-22.34 36.02-52.6 43.86-83.13 10.34-41.18 12.4-83.92 11.8-126.21.07-18.1-1.7-36.13-2.09-54.21m1225.68 60.8c19.73-9.22 42.11-10.89 63.55-8.86 15.55 1.78 31.07 6.18 44.24 14.84a75 75 0 0 1 29.76 38.26 18 18 0 0 1 .75 3.88c-20.12 5.4-40.35 10.42-60.48 15.79-2.22.52-4.44 1.25-6.72 1.09-1.8-7.54-9.63-11.01-16.7-11.62-6.77-.55-13.94-.95-20.39 1.51-3.14.91-4.78 4.91-2.63 7.55 3.44 4.16 9 5.58 14.01 6.92 19.58 4.34 39.47 7.82 58.4 14.64 12.03 4.34 24 10.87 31.26 21.77 7.5 11.3 8.61 25.51 7.28 38.66-1.48 14.13-8.13 27.68-18.69 37.22-13.06 12.04-30.37 18.28-47.61 21.31-22.68 3.8-46.45 3.32-68.43-3.83-17.24-5.66-33.49-15.89-43.93-30.98-4.11-6.25-7.99-13.03-9.21-20.5 20.29-5.6 40.8-10.49 61.13-15.99 2.17-.58 4.35-1.2 6.62-1.44 1.79 2.9 3.13 6.36 6.31 8.08 7.99 4.89 17.79 4.59 26.83 4.33 4.91-.36 10.2-.14 14.66-2.58 2.93-1.44 3.23-6.04.52-7.85-4.56-3.59-10.45-4.65-15.92-6.07-20.47-4.46-41.25-8.72-60.37-17.57-12.31-5.77-24.24-14.34-29.9-27.12-6.79-15.61-5.36-34.09 1.81-49.32 6.89-14.38 19.48-25.51 33.85-32.12m-764.05-7.05c19.63-3.58 40.3-2.72 59.29 3.68 24.4 8.14 45.4 26.02 56.96 49.05a114.7 114.7 0 0 1 9.78 74.26c-39.85.22-79.73.03-119.59.09-8.79.17-17.6-.34-26.38.23 1.24 5.43 5.02 9.81 8.71 13.8 9.37 9.79 23.31 14.19 36.65 13.5 10.7-.55 22.06-2.54 30.58-9.53 3.23-2.47 5.24-6.05 7.66-9.23 9 3.14 17.59 7.37 26.45 10.92 9.33 4.03 18.81 7.75 28.08 11.94-1.06 3.43-3.16 6.39-5.09 9.37a93 93 0 0 1-34.93 31.18c-16.81 8.71-35.85 12.77-54.74 12.6-19.29.29-38.78-4.21-55.57-13.83a97.7 97.7 0 0 1-37.67-38.29c-14.18-25.98-16.97-57.48-9.47-85.94 4.8-18.13 14.47-35.05 28.14-47.95 14.04-13.38 32.13-22.23 51.14-25.85m8.05 57.11a44 44 0 0 0-27.44 22.2q41.33.36 82.67-.01a41.7 41.7 0 0 0-20.56-20.1c-10.82-4.83-23.32-5.22-34.67-2.09"/><path id="#008476ff" fill="#008476" d="M375.66 77.74c18.82-5.99 40.09-3.62 57.02 6.59 9.21 5.08 16.4 12.91 23.3 20.69a71.6 71.6 0 0 1 10.95 33.78c.39 18.08 2.16 36.11 2.09 54.21.6 42.29-1.46 85.03-11.8 126.21-7.84 30.53-21 60.79-43.86 83.13-20.12 20.12-47.19 32.06-74.91 37.23q-6.38 1-12.71 2.12c-39.62 4.23-79.7.63-118.81-6.29-33.75-4.9-67.33-18.85-90.74-44.33-9.7-11.8-17.67-25.38-20.84-40.47-4.66-19.15-1.47-39.91 8.24-57 10.72-18.97 28.77-33.01 48.67-41.36 11.29-5.03 23.47-7.4 35.31-10.72 24.03-6.81 47.86-16.47 67.03-32.87 9.69-8.45 18.68-17.87 25.78-28.62 4.79-5.56 8.75-11.75 12.83-17.83 9.2-13.8 18.22-27.72 27.69-41.34 13.89-18.87 32.01-35.91 54.76-43.13"/><path id="#ff7528ff" fill="#ff7528" d="M1338.32 96.27c16.16-2.64 33.27 6.3 40.43 21 7.72 14.8 4.48 34.35-7.68 45.81-13.11 13.09-35.79 14.65-50.5 3.35-13.19-9.49-19.12-27.55-14.14-43.02 4.17-14.22 17.14-25.37 31.89-27.14M253.97 195.25c9.2-4.39 17.22-10.83 26.41-15.21-7.1 10.75-16.09 20.17-25.78 28.62-19.17 16.4-43 26.06-67.03 32.87-11.84 3.32-24.02 5.69-35.31 10.72-19.9 8.35-37.95 22.39-48.67 41.36-9.71 17.09-12.9 37.85-8.24 57 3.17 15.09 11.14 28.67 20.84 40.47-4.45-1.15-8.31-3.73-12.2-6.06-20.02-12.37-37.19-30.74-44.67-53.38-5.07-14.62-5.63-30.97-.46-45.65 5.11-15.76 16.64-28.86 30.55-37.58 16.96-10.79 37.03-15.61 56.89-17.12 23.49-1.9 46.53-7.83 68.37-16.6 13.48-5.63 26.87-11.73 39.3-19.44m1054.93.8c14.68-.48 29.4-.05 44.1-.2 8.62.15 17.25-.28 25.87.18.31 54.65.04 109.31.13 163.97-.11 12.96.2 25.93-.12 38.88q-35 .31-69.99-.01c-.58-23.6-.08-47.25-.25-70.87v-92c.19-13.31-.37-26.66.26-39.95"/></svg>