<?xml version="1.0" encoding="UTF-8" ?>
<!DOCTYPE svg PUBLIC "-//W3C//DTD SVG 1.1//EN" "http://www.w3.org/Graphics/SVG/1.1/DTD/svg11.dtd">
<svg width="1000pt" height="1000pt" viewBox="0 0 1000 1000" version="1.1" xmlns="http://www.w3.org/2000/svg">
<g id="#ffcc00ff">
<path fill="#ffcc00" opacity="1.00" d=" M 619.79 6.73 C 624.55 4.62 630.74 4.47 634.71 8.28 C 639.66 12.27 640.22 20.37 636.24 25.21 C 632.91 29.13 628.00 31.10 623.68 33.69 C 544.54 81.11 462.17 122.77 380.41 165.40 C 367.59 172.13 354.60 178.51 341.88 185.42 C 373.45 169.67 405.34 154.57 437.07 139.17 C 474.14 121.33 511.42 103.95 548.91 87.03 C 585.61 70.39 622.15 53.32 659.74 38.77 C 668.18 35.66 676.58 32.31 685.32 30.12 C 691.86 28.42 700.10 30.06 703.59 36.37 C 706.79 41.61 705.26 48.76 700.61 52.62 C 693.75 58.56 686.02 63.41 678.63 68.67 C 649.45 89.19 618.32 106.68 587.41 124.43 C 535.24 153.89 482.92 183.11 430.94 212.91 C 413.28 223.33 395.23 233.11 377.81 243.94 C 370.43 245.81 362.88 246.90 355.43 248.42 C 336.63 252.11 317.99 256.59 299.37 261.11 C 299.79 269.55 304.30 277.49 311.53 281.94 C 281.57 300.26 251.14 317.80 221.01 335.84 C 251.79 321.63 282.59 307.39 312.63 291.68 C 308.66 300.47 310.39 310.44 313.86 319.07 C 342.71 311.87 371.78 305.29 401.26 301.23 C 389.67 307.42 377.92 313.33 366.57 319.96 C 356.62 318.35 346.34 319.43 337.02 323.29 C 337.71 327.03 338.47 330.77 339.44 334.45 C 328.18 340.39 317.01 346.51 305.96 352.82 C 317.59 348.06 328.81 342.36 340.12 336.89 C 341.48 341.54 342.82 346.20 343.93 350.92 C 322.17 361.22 300.50 371.68 278.61 381.70 C 236.13 401.25 193.36 420.15 151.05 440.09 C 147.76 441.60 144.51 443.40 140.91 444.05 C 135.51 444.93 129.91 440.55 129.73 435.02 C 129.56 429.92 133.53 426.16 136.63 422.61 C 144.34 413.79 154.25 407.39 163.76 400.72 C 176.75 391.59 190.30 383.29 203.63 374.67 C 223.62 361.73 244.49 350.26 264.99 338.19 C 227.29 354.91 190.57 374.47 150.74 385.87 C 143.01 388.06 135.16 391.20 126.98 390.42 C 120.62 389.75 115.76 383.27 116.85 376.99 C 117.55 372.72 120.82 369.62 123.90 366.88 C 130.00 361.54 136.66 356.87 143.36 352.33 C 174.03 331.88 206.04 313.55 237.69 294.69 C 270.39 275.35 303.01 255.86 335.92 236.88 C 405.37 196.57 475.01 156.61 544.99 117.23 C 527.24 124.71 509.67 132.57 491.92 140.04 C 465.36 151.54 438.54 162.43 412.04 174.06 C 381.28 187.39 350.71 201.16 320.39 215.46 C 282.35 233.45 243.34 249.24 204.65 265.74 C 197.54 268.48 190.68 272.36 183.01 273.24 C 177.16 273.99 171.35 268.95 171.56 263.00 C 171.55 258.70 174.69 255.38 177.58 252.59 C 184.00 246.58 190.55 240.60 198.15 236.10 C 227.20 218.47 257.53 203.05 287.95 187.94 C 292.79 185.57 297.51 182.98 302.02 180.02 C 321.83 167.21 341.65 154.41 361.22 141.21 C 382.40 126.56 404.91 113.97 427.33 101.34 C 447.23 90.47 467.20 79.73 487.39 69.41 C 522.17 52.86 557.10 36.64 591.75 19.83 C 601.08 15.42 610.32 10.83 619.79 6.73 Z" />
<path fill="#ffcc00" opacity="1.00" d=" M 762.37 78.19 C 766.75 77.21 771.66 76.92 775.64 79.38 C 780.90 82.28 783.43 89.10 781.58 94.77 C 780.00 100.15 775.57 104.01 771.20 107.22 C 756.59 117.70 740.89 126.57 724.94 134.85 C 676.08 160.20 626.85 184.82 577.82 209.84 C 558.81 219.71 539.48 228.97 520.64 239.16 C 494.96 235.75 468.95 234.92 443.10 236.66 C 434.36 237.09 425.67 238.05 416.96 238.71 C 484.41 203.49 552.18 168.81 620.74 135.78 C 642.76 125.54 665.09 116.00 687.39 106.42 C 704.39 99.31 721.28 91.92 738.63 85.68 C 746.44 82.89 754.25 79.98 762.37 78.19 Z" />
<path fill="#ffcc00" opacity="1.00" d=" M 718.86 145.87 C 728.01 142.23 737.10 137.85 746.97 136.58 C 757.31 135.12 767.86 144.45 766.87 155.03 C 767.11 163.41 760.40 169.66 753.98 173.96 C 722.46 194.57 690.08 213.85 657.19 232.19 C 638.00 242.81 618.67 253.19 599.61 264.04 C 585.93 257.09 571.68 251.21 556.90 247.05 C 547.20 244.18 537.27 242.23 527.37 240.19 C 533.70 236.06 540.60 232.91 547.18 229.19 C 565.45 218.74 584.45 209.65 603.30 200.30 C 625.68 189.26 648.13 178.37 670.60 167.53 C 686.41 159.71 702.53 152.54 718.86 145.87 Z" />
<path fill="#ffcc00" opacity="1.00" d=" M 815.50 186.52 C 824.42 183.60 833.44 179.50 843.04 180.24 C 851.78 180.99 858.91 189.22 858.62 197.97 C 858.92 204.98 854.15 210.87 848.68 214.66 C 834.47 224.97 818.83 233.09 803.57 241.70 C 756.91 267.42 709.93 292.57 662.75 317.33 C 650.28 301.19 635.31 287.07 618.56 275.44 C 683.15 243.57 748.06 211.98 815.50 186.52 Z" />
<path fill="#ffcc00" opacity="1.00" d=" M 840.12 259.04 C 846.72 256.21 853.69 252.98 861.06 253.81 C 870.81 254.91 878.68 264.29 878.32 274.03 C 877.89 279.89 875.19 285.80 870.29 289.21 C 865.32 292.68 859.58 294.75 854.14 297.33 C 811.48 316.85 769.10 336.96 726.62 356.85 C 715.43 362.05 704.47 367.75 693.07 372.47 C 687.97 359.57 681.97 347.03 674.88 335.11 C 691.85 326.98 708.79 318.82 725.73 310.63 C 763.57 292.79 801.83 275.88 840.12 259.04 Z" />
<path fill="#ffcc00" opacity="1.00" d=" M 847.95 301.92 C 856.40 298.30 864.68 293.57 873.96 292.54 C 887.25 290.92 900.10 303.72 898.48 317.02 C 897.79 325.74 891.79 333.22 884.18 337.12 C 866.53 346.47 848.18 354.40 830.17 362.99 C 789.06 382.33 747.83 401.42 706.65 420.61 C 703.33 404.88 699.21 389.31 693.71 374.19 C 693.73 372.61 695.73 372.32 696.77 371.54 C 714.26 363.44 731.52 354.86 749.11 346.98 C 782.09 332.03 815.00 316.94 847.95 301.92 Z" />
<path fill="#ffcc00" opacity="1.00" d=" M 413.17 299.92 C 426.78 297.50 440.65 296.12 454.47 296.35 C 448.86 299.06 443.44 302.17 437.80 304.81 C 432.81 306.36 427.74 307.78 423.05 310.12 C 418.74 312.21 414.91 315.13 411.02 317.90 C 402.96 321.72 394.98 325.72 386.88 329.49 C 382.23 326.12 377.10 323.43 371.71 321.45 C 385.56 314.33 399.61 307.57 413.17 299.92 Z" />
<path fill="#ffcc00" opacity="1.00" d=" M 458.36 296.10 C 461.89 295.74 465.45 295.58 469.01 295.54 C 489.91 295.57 510.96 296.91 531.34 301.79 C 507.17 315.59 482.67 328.82 458.39 342.44 C 456.45 329.60 455.26 316.66 453.19 303.83 C 450.66 303.76 448.15 303.66 445.63 303.65 C 450.01 301.36 454.02 298.46 458.36 296.10 Z" />
<path fill="#ffcc00" opacity="1.00" d=" M 553.99 308.23 C 575.49 315.79 595.31 328.28 611.29 344.53 C 563.21 369.79 515.14 395.07 467.65 421.40 C 465.96 408.63 464.43 395.84 463.19 383.02 C 486.55 370.59 509.48 357.36 533.01 345.22 C 509.50 356.21 486.00 367.25 462.69 378.65 C 461.73 371.48 460.84 364.30 460.08 357.11 C 472.27 351.05 484.16 344.43 496.27 338.23 C 515.44 328.09 534.91 318.53 553.99 308.23 Z" />
<path fill="#ffcc00" opacity="1.00" d=" M 392.04 333.95 C 396.39 331.40 400.93 329.13 405.04 326.17 C 402.28 331.36 400.88 337.12 399.73 342.84 C 397.28 339.78 394.79 336.74 392.04 333.95 Z" />
<path fill="#ffcc00" opacity="1.00" d=" M 259.58 411.63 C 288.53 394.60 317.26 377.17 346.39 360.44 C 350.08 373.59 353.57 386.80 356.97 400.04 C 321.89 420.54 287.07 441.47 252.26 462.39 C 250.85 463.26 249.47 464.17 248.10 465.08 C 264.40 458.09 280.05 449.69 296.05 442.06 C 317.27 431.44 338.60 421.03 359.53 409.82 C 361.34 416.37 363.13 422.91 364.73 429.51 C 362.68 430.15 360.65 430.87 358.71 431.79 C 323.22 450.11 287.44 467.88 251.69 485.68 C 233.78 494.55 215.53 502.70 197.61 511.56 C 173.53 523.31 148.70 533.42 124.15 544.12 C 117.66 547.07 110.66 551.12 103.28 548.99 C 94.42 546.99 88.59 536.86 91.24 528.20 C 93.19 521.91 97.81 516.93 102.50 512.50 C 115.64 500.65 130.62 491.14 145.41 481.51 C 182.86 457.24 221.26 434.49 259.58 411.63 Z" />
<path fill="#ffcc00" opacity="1.00" d=" M 579.26 383.16 C 594.38 375.43 609.47 367.64 624.84 360.43 C 632.85 371.44 638.93 383.83 643.01 396.82 C 625.73 405.76 608.21 414.22 590.81 422.94 C 553.75 441.75 516.65 460.50 479.91 479.94 C 478.12 480.95 476.38 482.05 474.74 483.30 C 472.99 468.62 471.22 453.94 469.72 439.23 C 506.00 420.08 542.70 401.75 579.26 383.16 Z" />
<path fill="#ffcc00" opacity="1.00" d=" M 851.48 372.62 C 857.47 370.16 863.56 367.65 870.01 366.74 C 879.16 365.47 888.46 371.77 891.21 380.47 C 892.45 386.18 892.02 392.68 888.36 397.47 C 884.43 402.71 878.39 405.67 872.88 408.93 C 837.54 428.43 801.97 447.51 766.18 466.18 C 749.17 474.79 732.46 484.05 715.27 492.31 C 714.52 473.89 712.81 455.51 709.79 437.32 C 746.18 419.97 782.38 402.16 819.49 386.38 C 830.15 381.79 840.84 377.25 851.48 372.62 Z" />
<path fill="#ffcc00" opacity="1.00" d=" M 538.58 451.48 C 573.33 433.26 608.19 415.23 643.22 397.53 C 647.02 409.33 649.16 421.62 650.10 433.97 C 650.53 439.33 650.14 444.87 648.02 449.88 C 628.42 458.96 609.42 469.25 590.17 479.03 C 577.29 485.44 564.73 492.47 551.91 498.99 C 548.16 499.97 544.37 500.78 540.57 501.50 C 519.74 505.26 498.81 508.55 477.76 510.74 C 476.91 501.88 475.76 493.05 474.83 484.20 C 496.27 473.69 517.29 462.31 538.58 451.48 Z" />
<path fill="#ffcc00" opacity="1.00" d=" M 880.57 428.57 C 886.50 426.03 892.31 422.31 898.98 422.32 C 907.72 421.82 915.80 428.71 917.76 437.05 C 919.19 442.32 917.55 448.04 914.46 452.40 C 910.59 457.70 904.67 460.85 899.22 464.24 C 879.10 475.61 858.59 486.27 838.00 496.77 C 845.98 493.44 853.83 489.83 861.90 486.72 C 870.72 483.39 879.40 478.80 889.05 478.69 C 897.19 478.82 905.98 482.54 909.77 490.14 C 914.99 499.41 912.50 512.43 903.86 518.77 C 898.91 522.57 893.09 524.96 887.51 527.64 C 857.36 541.90 827.60 556.97 797.70 571.75 C 764.76 588.53 732.18 606.01 699.75 623.76 C 641.15 656.01 582.02 687.32 524.41 721.34 C 517.27 725.19 510.64 729.95 503.25 733.34 C 501.91 721.93 500.33 710.54 499.62 699.07 C 536.39 693.11 572.91 683.71 606.72 667.80 C 638.11 652.65 666.58 630.24 686.21 601.21 C 704.54 574.24 713.18 541.72 714.86 509.41 C 726.11 504.86 736.69 498.85 747.62 493.61 C 768.76 483.20 789.62 472.25 810.71 461.75 C 833.91 450.51 857.02 439.08 880.57 428.57 Z" />
<path fill="#ffcc00" opacity="1.00" d=" M 328.80 459.82 C 341.50 452.52 354.00 444.85 366.90 437.90 C 370.21 449.78 373.21 461.74 376.26 473.69 C 342.79 493.16 309.86 513.55 276.94 533.92 C 246.57 552.46 216.53 571.53 186.43 590.51 C 184.24 591.93 182.09 593.41 179.97 594.93 C 194.74 588.05 208.81 579.74 223.26 572.20 C 261.80 551.50 300.28 530.67 338.70 509.73 C 352.42 502.43 365.89 494.64 379.75 487.60 C 383.14 499.31 385.98 511.17 389.00 522.98 C 394.22 543.21 399.46 563.44 404.31 583.77 C 373.25 602.54 342.10 621.14 311.02 639.86 C 342.89 624.01 374.57 607.77 406.31 591.66 C 410.64 608.13 414.56 624.70 418.69 641.22 C 428.72 683.05 438.97 724.84 447.84 766.94 C 423.63 781.19 399.89 796.25 375.69 810.52 C 400.13 798.01 424.61 785.57 449.24 773.44 C 456.37 805.52 462.72 837.82 467.13 870.40 C 470.35 869.42 473.77 868.61 476.41 866.40 C 483.06 860.81 487.16 852.68 488.60 844.19 C 492.79 849.68 497.70 854.90 504.02 857.94 C 508.13 860.01 512.75 860.56 517.26 861.16 C 513.58 822.56 508.55 784.10 504.71 745.52 C 537.24 729.89 569.47 713.65 602.00 698.01 C 666.19 666.96 730.81 636.80 795.23 606.23 C 834.60 587.61 874.49 570.12 914.11 552.04 C 921.74 548.81 929.46 544.47 938.05 545.19 C 947.17 545.41 954.98 553.03 956.23 561.94 C 957.36 570.38 952.91 579.31 945.37 583.34 C 927.59 593.30 909.17 602.04 890.85 610.93 C 892.24 616.21 893.54 622.00 891.13 627.21 C 887.71 635.35 878.91 638.82 871.56 642.52 C 849.69 652.52 828.16 663.23 806.38 673.42 C 745.24 702.37 684.59 732.46 625.56 765.55 C 589.61 785.43 554.09 806.05 518.22 826.07 C 548.06 810.99 577.97 796.02 607.71 780.71 C 623.20 772.93 638.77 765.31 653.97 756.95 C 683.65 740.54 713.21 723.91 743.33 708.33 C 767.49 696.28 791.65 684.17 816.45 673.46 C 823.88 670.24 831.86 667.51 840.06 667.82 C 850.74 668.45 859.86 678.34 859.62 689.02 C 859.47 696.37 855.09 703.00 849.46 707.44 C 843.28 712.26 836.21 715.70 829.40 719.48 C 809.08 730.11 788.72 740.67 768.61 751.69 C 744.84 764.52 720.80 776.88 697.38 790.35 C 675.08 803.26 652.93 816.41 630.74 829.48 C 674.16 809.85 718.19 791.54 762.75 774.65 C 790.09 764.38 817.66 754.73 845.18 744.96 C 856.08 741.40 866.74 736.91 878.07 734.86 C 884.39 733.68 891.31 735.53 895.96 740.04 C 901.53 745.87 903.31 755.29 899.51 762.54 C 896.27 768.85 889.74 772.34 883.89 775.84 C 866.90 785.34 849.41 793.91 832.20 803.01 C 809.30 814.58 786.37 826.11 763.08 836.87 C 784.30 830.79 805.79 824.30 828.04 823.90 C 833.33 823.83 838.23 826.05 843.03 827.99 C 844.76 828.80 846.79 829.57 847.72 831.40 C 848.94 833.60 848.48 836.84 846.27 838.25 C 843.90 839.93 841.30 841.24 839.00 843.01 C 831.66 848.68 822.87 851.95 814.46 855.66 C 795.75 863.71 776.53 870.49 757.38 877.43 C 735.01 885.70 712.82 894.46 690.30 902.34 C 622.69 926.98 556.07 954.27 490.16 983.15 C 480.76 987.25 471.60 992.13 461.66 994.83 C 451.78 997.52 440.87 991.06 437.74 981.48 C 435.25 974.82 437.34 967.14 441.89 961.89 C 445.79 957.32 451.11 954.35 455.98 950.96 C 475.94 937.24 497.12 925.43 518.01 913.20 C 498.42 920.68 479.22 929.21 459.49 936.33 C 453.54 938.26 446.52 938.45 441.16 934.82 C 434.02 930.55 430.71 921.09 433.42 913.26 C 436.07 905.17 442.40 899.12 448.21 893.22 C 453.17 888.14 458.89 883.90 464.04 879.04 C 451.41 884.40 439.39 891.11 427.07 897.13 C 398.24 911.89 369.51 926.85 340.88 941.99 C 329.22 948.03 317.54 954.04 305.67 959.66 C 300.76 961.86 295.51 964.29 289.99 963.46 C 283.20 962.53 278.03 955.72 278.60 948.97 C 279.02 942.94 282.42 937.74 285.69 932.86 C 270.75 941.75 255.49 950.09 240.09 958.16 C 235.36 960.59 230.64 964.07 225.04 963.67 C 216.61 963.59 209.70 954.27 212.29 946.20 C 213.14 942.87 215.42 940.17 217.85 937.85 C 240.03 917.42 265.97 901.82 290.94 885.14 C 271.52 894.31 251.90 903.07 232.67 912.65 C 220.54 918.29 209.01 925.11 197.01 931.01 C 180.31 939.77 162.94 947.21 146.63 956.70 C 140.92 960.13 133.42 960.86 127.49 957.60 C 120.04 953.86 115.77 944.50 118.33 936.49 C 120.40 929.64 125.33 924.22 130.08 919.07 C 141.83 906.34 155.86 896.06 169.51 885.50 C 193.91 867.14 218.82 849.46 243.96 832.13 C 228.10 840.21 213.02 849.71 197.54 858.49 C 191.61 861.62 186.09 866.93 178.94 866.50 C 171.32 866.15 165.22 858.44 166.58 850.94 C 167.38 844.47 173.28 840.73 177.73 836.73 C 190.35 825.62 203.45 815.07 216.63 804.65 C 224.78 798.13 232.69 791.31 241.21 785.28 C 257.66 774.06 274.22 762.99 290.91 752.13 C 274.00 760.72 256.72 768.55 239.59 776.67 C 233.07 779.60 226.33 783.15 218.96 782.58 C 211.67 782.15 205.16 776.56 203.41 769.51 C 201.52 763.37 203.94 756.72 207.97 752.00 C 217.81 740.74 229.63 731.47 241.64 722.66 C 277.59 696.47 315.41 672.98 352.98 649.21 C 298.64 675.49 244.52 702.25 190.91 729.99 C 157.36 746.83 124.62 765.24 91.05 782.07 C 85.06 785.04 79.04 787.96 73.16 791.18 C 68.32 793.81 62.55 795.47 57.09 793.83 C 49.19 791.93 43.70 783.94 43.71 775.98 C 44.06 769.47 47.74 763.73 52.08 759.09 C 61.59 748.89 72.24 739.82 83.09 731.08 C 100.65 716.83 119.08 703.66 137.93 691.17 C 121.69 698.68 105.07 705.30 88.79 712.71 C 84.59 714.54 79.89 716.07 75.30 714.88 C 69.65 713.82 64.87 709.56 62.93 704.19 C 61.02 698.15 62.56 691.40 66.61 686.58 C 74.25 677.06 83.34 668.73 92.95 661.23 C 85.60 663.76 77.96 666.49 70.05 665.66 C 62.20 665.06 55.22 658.00 55.28 650.02 C 54.92 643.94 58.24 638.47 61.83 633.84 C 67.75 626.74 75.28 621.22 82.37 615.36 C 110.16 593.70 139.92 574.74 169.41 555.50 C 202.09 534.09 235.94 514.54 269.43 494.44 C 289.09 482.69 309.04 471.42 328.80 459.82 Z" />
</g>
<g id="#003749ff">
<path fill="#003749" opacity="1.00" d=" M 443.10 236.66 C 468.95 234.92 494.96 235.75 520.64 239.16 C 522.89 239.43 525.14 239.76 527.37 240.19 C 537.27 242.23 547.20 244.18 556.90 247.05 C 571.68 251.21 585.93 257.09 599.61 264.04 C 606.13 267.48 612.49 271.25 618.56 275.44 C 635.31 287.07 650.28 301.19 662.75 317.33 C 667.16 322.99 671.18 328.96 674.88 335.11 C 681.97 347.03 687.97 359.57 693.07 372.47 C 693.23 372.90 693.55 373.76 693.71 374.19 C 699.21 389.31 703.33 404.88 706.65 420.61 C 707.85 426.15 708.87 431.73 709.79 437.32 C 712.81 455.51 714.52 473.89 715.27 492.31 C 715.40 498.01 715.11 503.71 714.86 509.41 C 713.18 541.72 704.54 574.24 686.21 601.21 C 666.58 630.24 638.11 652.65 606.72 667.80 C 572.91 683.71 536.39 693.11 499.62 699.07 C 500.33 710.54 501.91 721.93 503.25 733.34 C 503.75 737.39 504.26 741.45 504.71 745.52 C 508.55 784.10 513.58 822.56 517.26 861.16 C 512.75 860.56 508.13 860.01 504.02 857.94 C 497.70 854.90 492.79 849.68 488.60 844.19 C 487.16 852.68 483.06 860.81 476.41 866.40 C 473.77 868.61 470.35 869.42 467.13 870.40 C 462.72 837.82 456.37 805.52 449.24 773.44 C 448.75 771.27 448.28 769.10 447.84 766.94 C 438.97 724.84 428.72 683.05 418.69 641.22 C 414.56 624.70 410.64 608.13 406.31 591.66 C 405.61 589.04 404.93 586.41 404.31 583.77 C 399.46 563.44 394.22 543.21 389.00 522.98 C 385.98 511.17 383.14 499.31 379.75 487.60 C 378.48 482.99 377.43 478.33 376.26 473.69 C 373.21 461.74 370.21 449.78 366.90 437.90 C 366.13 435.11 365.43 432.31 364.73 429.51 C 363.13 422.91 361.34 416.37 359.53 409.82 C 358.64 406.57 357.78 403.31 356.97 400.04 C 353.57 386.80 350.08 373.59 346.39 360.44 C 345.49 357.28 344.68 354.11 343.93 350.92 C 342.82 346.20 341.48 341.54 340.12 336.89 C 339.95 336.28 339.61 335.06 339.44 334.45 C 338.47 330.77 337.71 327.03 337.02 323.29 C 346.34 319.43 356.62 318.35 366.57 319.96 C 368.30 320.38 370.02 320.88 371.71 321.45 C 377.10 323.43 382.23 326.12 386.88 329.49 C 388.70 330.85 390.41 332.35 392.04 333.95 C 394.79 336.74 397.28 339.78 399.73 342.84 C 400.88 337.12 402.28 331.36 405.04 326.17 C 406.99 323.38 408.90 320.56 411.02 317.90 C 414.91 315.13 418.74 312.21 423.05 310.12 C 427.74 307.78 432.81 306.36 437.80 304.81 C 440.39 304.34 443.01 304.00 445.63 303.65 C 448.15 303.66 450.66 303.76 453.19 303.83 C 455.26 316.66 456.45 329.60 458.39 342.44 C 459.02 347.32 459.53 352.22 460.08 357.11 C 460.84 364.30 461.73 371.48 462.69 378.65 C 462.86 380.10 463.03 381.56 463.19 383.02 C 464.43 395.84 465.96 408.63 467.65 421.40 C 468.39 427.34 469.05 433.28 469.72 439.23 C 471.22 453.94 472.99 468.62 474.74 483.30 L 474.83 484.20 C 475.76 493.05 476.91 501.88 477.76 510.74 C 498.81 508.55 519.74 505.26 540.57 501.50 C 544.37 500.78 548.16 499.97 551.91 498.99 C 572.61 494.75 593.17 489.20 612.46 480.45 C 626.66 473.79 641.56 464.93 648.02 449.88 C 650.14 444.87 650.53 439.33 650.10 433.97 C 649.16 421.62 647.02 409.33 643.22 397.53 L 643.01 396.82 C 638.93 383.83 632.85 371.44 624.84 360.43 C 620.72 354.80 616.14 349.53 611.29 344.53 C 595.31 328.28 575.49 315.79 553.99 308.23 C 546.58 305.61 538.99 303.58 531.34 301.79 C 510.96 296.91 489.91 295.57 469.01 295.54 C 465.45 295.58 461.89 295.74 458.36 296.10 C 457.06 296.19 455.76 296.27 454.47 296.35 C 440.65 296.12 426.78 297.50 413.17 299.92 C 409.19 300.30 405.20 300.56 401.26 301.23 C 371.78 305.29 342.71 311.87 313.86 319.07 C 310.39 310.44 308.66 300.47 312.63 291.68 C 314.70 289.16 316.77 286.64 318.88 284.16 C 316.41 283.48 313.93 282.82 311.53 281.94 C 304.30 277.49 299.79 269.55 299.37 261.11 C 317.99 256.59 336.63 252.11 355.43 248.42 C 362.88 246.90 370.43 245.81 377.81 243.94 C 390.86 242.18 403.86 240.03 416.96 238.71 C 425.67 238.05 434.36 237.09 443.10 236.66 Z" />
</g>
</svg>
